<svg xmlns="http://www.w3.org/2000/svg"  viewBox="0 0 50 50" width="50px" height="50px"><path d="M 13.373047 16.636719 C 11.807047 16.636719 10.873047 17.662094 10.873047 19.371094 L 10.871094 20.25 L 9.90625 20.25 L 8.7890625 21.849609 L 10.873047 21.849609 L 10.873047 29.650391 L 12.917969 29.650391 L 12.917969 21.849609 L 15.003906 21.849609 L 15.003906 20.25 L 12.917969 20.25 L 12.917969 19.339844 C 12.917969 18.651844 13.204438 18.373047 13.898438 18.373047 C 14.297437 18.373047 14.710906 18.45125 15.003906 18.53125 L 15.003906 16.884766 C 14.584906 16.734766 14.003047 16.636719 13.373047 16.636719 z M 37.523438 17.056641 L 35.484375 18.095703 L 35.484375 20.251953 L 33.996094 20.251953 L 33.996094 21.849609 L 35.484375 21.849609 L 35.484375 27.103516 C 35.484375 28.818516 36.416516 29.833984 37.978516 29.833984 C 38.496516 29.833984 39.012344 29.771391 39.402344 29.650391 L 39.650391 28.019531 C 39.533391 28.048531 39.105562 28.152344 38.726562 28.152344 C 37.875563 28.152344 37.525391 27.811844 37.525391 26.964844 L 37.525391 21.849609 L 39.875 21.849609 L 39.263672 20.251953 L 37.523438 20.251953 L 37.523438 17.056641 z M 24.976562 20.0625 C 24.014563 20.0625 23.097094 20.467609 22.621094 21.099609 L 22.621094 20.25 L 20.576172 20.25 L 20.576172 29.650391 L 22.621094 29.650391 L 22.621094 24.164062 C 22.621094 22.640062 23.279516 21.798828 24.478516 21.798828 C 25.779516 21.798828 26.335937 22.559797 26.335938 24.341797 L 26.335938 29.650391 L 28.375 29.650391 L 28.375 24.269531 C 28.376 21.515531 27.204563 20.0625 24.976562 20.0625 z M 0.22460938 20.25 L 3.4179688 24.787109 L 0 29.650391 L 2.3457031 29.650391 L 4.546875 26.431641 L 9.1152344 32.964844 L 11.367188 32.964844 L 5.6699219 24.787109 L 8.8652344 20.25 L 6.5214844 20.25 L 4.546875 23.142578 L 2.5703125 20.25 L 0.22460938 20.25 z M 16.347656 20.25 L 16.347656 29.650391 L 18.392578 29.650391 L 18.392578 29.121094 L 18.392578 20.25 L 16.347656 20.25 z M 30.466797 20.25 L 30.466797 29.650391 L 32.519531 29.650391 L 32.519531 20.25 L 30.466797 20.25 z M 40.150391 20.25 L 43.300781 28.445312 L 40.863281 32.964844 L 43.021484 32.964844 L 50 20.25 L 47.792969 20.25 L 44.513672 26.240234 L 42.269531 20.25 L 40.150391 20.25 z"/></svg>